<svg version="1.1" xmlns="http://www.w3.org/2000/svg" viewBox="0 0 995.3290234186361 499.6964367877821" width="995.3290234186361" height="499.6964367877821">
  <!-- svg-source:excalidraw -->
  
  <defs>
    <style>
      @font-face {
        font-family: "Virgil";
        src: url("https://plus.excalidraw.com/Virgil.woff2");
      }
      @font-face {
        font-family: "Cascadia";
        src: url("https://plus.excalidraw.com/Cascadia.woff2");
      }
    </style>
  </defs>
  <rect x="0" y="0" width="995.3290234186361" height="499.6964367877821" fill="#ffffff"></rect><g transform="translate(306.0555687752617 401.38897984744574) rotate(7.328955070399636 177 10)"><text x="0" y="14" font-family="Virgil, Segoe UI Emoji" font-size="16px" fill="#087f5b" text-anchor="start" style="white-space: pre;" direction="ltr">IPFS URI to access current versionof data</text></g><g transform="translate(306.797820188448 344.79772870344425) rotate(5.904248987336122 169.5 10)"><text x="0" y="14" font-family="Virgil, Segoe UI Emoji" font-size="16px" fill="#a61e4d" text-anchor="start" style="white-space: pre;" direction="ltr">URI is updated to new URI and new data</text></g><g transform="translate(77.3333333333353 10) rotate(0 235.5 22.5)"><text x="0" y="32" font-family="Virgil, Segoe UI Emoji" font-size="36px" fill="#000000" text-anchor="start" style="white-space: pre;" direction="ltr">NFgenes Genesis Collection</text></g><g transform="translate(84.00000000000182 61.16666666666629) rotate(0 384.5 50)"><text x="0" y="18" font-family="Virgil, Segoe UI Emoji" font-size="20px" fill="#000000" text-anchor="start" style="white-space: pre;" direction="ltr"> - List of current identified unique human genes</text><text x="0" y="43" font-family="Virgil, Segoe UI Emoji" font-size="20px" fill="#000000" text-anchor="start" style="white-space: pre;" direction="ltr"> - Data is stored on IPFS for decentralization &amp; censorship resistance</text><text x="0" y="68" font-family="Virgil, Segoe UI Emoji" font-size="20px" fill="#000000" text-anchor="start" style="white-space: pre;" direction="ltr"> - NFgenes Genesis Contract will store a pointer to the current list on IPFS</text><text x="0" y="93" font-family="Virgil, Segoe UI Emoji" font-size="20px" fill="#000000" text-anchor="start" style="white-space: pre;" direction="ltr"> - Changes to the list will be handled by the NFgene DAO</text></g><g stroke-linecap="round" transform="translate(10 222.48066092417014) rotate(0 123.34013135936243 103.1763362045815)"><path d="M-0.55 0.97 C50.16 -0.24, 99.55 -2.62, 245.68 0.03 M-0.09 0.68 C73.73 -1.96, 145.97 -1.91, 247.22 -0.81 M245.45 0.57 C247.27 81, 244.98 163.49, 247.74 205.97 M246.56 0.55 C245.55 53.17, 244.94 107.83, 246.62 206.62 M245.21 207.41 C154.78 209.56, 60.05 209.42, 1 206.76 M247.11 205.93 C151.63 204.23, 56.65 204.08, 0.02 206.81 M1.44 207.73 C1.02 137.26, 3.37 66.14, -1.53 -1.22 M0.53 206.91 C-1.17 142.58, 0.2 76.26, -0.51 0.1" stroke="#000000" stroke-width="1" fill="none"></path></g><g transform="translate(30.117557469729036 233.9775614894471) rotate(0 95 17.5)"><text x="0" y="25" font-family="Virgil, Segoe UI Emoji" font-size="28px" fill="#000000" text-anchor="start" style="white-space: pre;" direction="ltr">IPFS Storage</text></g><g stroke-linecap="round" transform="translate(24.3753060565341 281.4973823239037) rotate(0 15.176297758774126 13.243927534651448)"><path d="M14.04 -0.86 C19.16 5.44, 24.14 6.82, 30.53 14.7 M15.8 0.99 C20.7 5.07, 25.38 9.41, 29.7 14.37 M29.87 15.3 C27.15 19.73, 21.09 21.89, 14.5 26.46 M30.71 13.12 C25.12 18.17, 20.97 22.72, 15.95 26.58 M14.63 25.23 C8.81 22.67, 4.51 15.02, -0.4 13.9 M15.79 25.59 C9.72 22.49, 5.05 17.68, 0.4 14.16 M0.77 13.13 C2.42 8.28, 9.33 6.24, 17.46 1.23 M-0.28 13.73 C4.51 10.29, 9.09 6.15, 15.91 0.55" stroke="#000000" stroke-width="1" fill="none"></path></g><g transform="translate(62.167495117271756 287.2152422705302) rotate(0 89.5 10)"><text x="0" y="14" font-family="Virgil, Segoe UI Emoji" font-size="16px" fill="#000000" text-anchor="start" style="white-space: pre;" direction="ltr">List of ~20k genes v1</text></g><g stroke-linecap="round" transform="translate(22.1039054696339 332.5894057986817) rotate(0 15.176297758774126 13.243927534651448)"><path d="M14.65 -1.86 C20.4 2.88, 23.05 7.54, 32.25 15.86 M16.74 -0.54 C20.38 4.48, 24.23 8.16, 30.6 14.81 M29.5 15.79 C26.5 18.82, 21.7 23.81, 14.58 25.36 M31.26 14.09 C25.16 17.94, 19.92 23.72, 15.5 26.91 M15.1 25.03 C13.07 23.05, 7.85 17.19, 0.15 15.59 M15.39 25.91 C11.88 23.56, 6 18.01, 0.14 13.31 M0.8 13.69 C4.24 9.54, 8.56 5.81, 16.63 1.81 M-0.16 13.61 C6.57 9.34, 12.44 4.47, 15.99 0.26" stroke="#a61e4d" stroke-width="1" fill="none"></path></g><g transform="translate(59.896094530371556 338.3072657453082) rotate(0 93 10)"><text x="0" y="14" font-family="Virgil, Segoe UI Emoji" font-size="16px" fill="#a61e4d" text-anchor="start" style="white-space: pre;" direction="ltr">List of ~20k genes v2</text></g><g stroke-linecap="round" transform="translate(20.1039054696339 381.5894057986817) rotate(0 15.176297758774126 13.243927534651448)"><path d="M14.8 0.25 C21.97 3.61, 25.48 7.97, 28.85 14.66 M15.82 0.54 C21.46 5.33, 24.27 9.2, 31.32 14 M29.78 13.93 C25.96 16.89, 24.1 21.87, 15.75 25.07 M30.33 14.21 C27.02 17.56, 22.38 20.8, 16.84 26.59 M14 25.76 C14.27 23.84, 10.21 21.4, 0.62 12.73 M16.95 27.16 C13.28 24, 9.7 20.53, 0.91 14.96 M1.82 15.24 C4.76 11.86, 8.83 6.88, 14.38 -0.07 M-0.08 14.94 C4.45 10.08, 11.36 5.21, 15.99 -0.49" stroke="#087f5b" stroke-width="1" fill="none"></path></g><g transform="translate(58.896094530371556 386.3072657453082) rotate(0 92.5 10)"><text x="0" y="14" font-family="Virgil, Segoe UI Emoji" font-size="16px" fill="#087f5b" text-anchor="start" style="white-space: pre;" direction="ltr">List of ~20k genes v3</text></g><g stroke-linecap="round"><g transform="translate(270.5000000000032 352.26292160434525) rotate(180.38603952082235 225.33890455279538 24.161947278028208)"><path d="M-0.19 -0.9 C75.09 7.17, 377.2 40.99, 452.42 49.22 M-1.75 1.24 C73.41 8.92, 376.74 39.46, 452.09 47.58" stroke="#a61e4d" stroke-width="1" fill="none"></path></g><g transform="translate(270.5000000000032 352.26292160434525) rotate(180.38603952082235 225.33890455279538 24.161947278028208)"><path d="M421.5 56.83 C434.99 52.16, 444.34 49.91, 451.28 49.14 M422.15 54.84 C433.59 52.47, 446.55 49.4, 452.79 48.09" stroke="#a61e4d" stroke-width="1" fill="none"></path></g><g transform="translate(270.5000000000032 352.26292160434525) rotate(180.38603952082235 225.33890455279538 24.161947278028208)"><path d="M423.61 36.42 C436.47 39.13, 445.06 44.27, 451.28 49.14 M424.26 34.43 C434.72 40.08, 446.85 45.02, 452.79 48.09" stroke="#a61e4d" stroke-width="1" fill="none"></path></g></g><g stroke-linecap="round" transform="translate(701.3349356662675 196.49772077162459) rotate(0 141.9970438761843 146.59935800807875)"><path d="M-1.41 0.15 C73.5 1.26, 144.93 -1.05, 283.76 -1.25 M-0.07 0.59 C95.53 1.22, 191.93 1.24, 283.96 -0.69 M284.67 0.85 C281.5 62.38, 283.99 125.94, 283.57 292.86 M283.98 0.57 C284.74 77.62, 284.4 155.48, 284.42 292.54 M284.35 292.7 C196.5 292.61, 109.52 295.19, -0.9 293.59 M284.63 293.96 C222.88 295.79, 160.77 294.72, -0.28 293.81 M1.26 293.74 C-0.59 200.25, -1.01 107.2, -0.46 -0.13 M0.25 293.29 C-0.34 186.48, -1.28 80.76, 0.28 0.23" stroke="#000000" stroke-width="1" fill="none"></path></g><g transform="translate(734.6094056527982 208.62039619558175) rotate(0 107.5 17.5)"><text x="0" y="25" font-family="Virgil, Segoe UI Emoji" font-size="28px" fill="#000000" text-anchor="start" style="white-space: pre;" direction="ltr">Smart contract</text></g><g transform="translate(725.5000000000027 247.83333333333314) rotate(0 122.5 60)"><text x="0" y="14" font-family="Virgil, Segoe UI Emoji" font-size="16px" fill="#000000" text-anchor="start" style="white-space: pre;" direction="ltr">- simple smart contract that</text><text x="0" y="34" font-family="Virgil, Segoe UI Emoji" font-size="16px" fill="#000000" text-anchor="start" style="white-space: pre;" direction="ltr">  will store a pointer on IPFS</text><text x="0" y="54" font-family="Virgil, Segoe UI Emoji" font-size="16px" fill="#000000" text-anchor="start" style="white-space: pre;" direction="ltr">  for the current list of genes</text><text x="0" y="74" font-family="Virgil, Segoe UI Emoji" font-size="16px" fill="#000000" text-anchor="start" style="white-space: pre;" direction="ltr">- contain a callable update</text><text x="0" y="94" font-family="Virgil, Segoe UI Emoji" font-size="16px" fill="#000000" text-anchor="start" style="white-space: pre;" direction="ltr">  method to change the URI</text><text x="0" y="114" font-family="Virgil, Segoe UI Emoji" font-size="16px" fill="#000000" text-anchor="start" style="white-space: pre;" direction="ltr">  as needed.</text></g><g stroke-linecap="round" transform="translate(729.5000000000027 389.83333333333314) rotate(0 9.5 14.5)"><path d="M10.18 1.73 C12.51 5.04, 17.64 10.18, 18.54 13.47 M9.15 0.05 C13.63 5.13, 15.08 10.26, 19.71 15.34 M20.6 15.97 C15.08 17.72, 11.95 24.57, 10.06 29.57 M18.85 14.74 C15.56 20.1, 13.12 24.89, 10.71 28.67 M9.22 28.74 C6.1 24.93, 4.53 23.49, 0.15 14.55 M9.81 29.85 C7.38 25.97, 6.54 23.3, 0.23 14.3 M0.42 16.55 C2.97 11.03, 5.67 3.36, 8.27 -0.94 M0.39 14.34 C3.02 11.06, 5.64 7.54, 10.56 0.08" stroke="#a61e4d" stroke-width="1" fill="none"></path></g><g transform="translate(765.5000000000027 394.83333333333314) rotate(0 85 10)"><text x="0" y="14" font-family="Virgil, Segoe UI Emoji" font-size="16px" fill="#a61e4d" text-anchor="start" style="white-space: pre;" direction="ltr">update method called</text></g><g stroke-linecap="round" transform="translate(730.5000000000027 439.33333333333314) rotate(0 9.5 14.5)"><path d="M8.84 -0.67 C11.25 3.47, 13.73 7.53, 20.3 16.49 M9.24 -0.08 C12.93 3.89, 14.45 8.7, 18.43 14.79 M18.13 14.05 C14.39 22.05, 12.22 27.35, 10.1 29.46 M18.86 15.13 C15.29 18.81, 13.11 23.78, 10.32 29.02 M8.59 28.02 C7.39 23.51, 3.63 18.98, -1.6 14.67 M9.62 28.21 C6.9 26.08, 4.92 23.43, -0.81 14.79 M-1.49 16.54 C3.72 13, 2.99 9.3, 10.47 -0.43 M0 15.33 C3.67 8.67, 7.46 3.04, 10.08 -0.64" stroke="#087f5b" stroke-width="1" fill="none"></path></g><g transform="translate(766.5000000000027 444.33333333333314) rotate(0 85 10)"><text x="0" y="14" font-family="Virgil, Segoe UI Emoji" font-size="16px" fill="#087f5b" text-anchor="start" style="white-space: pre;" direction="ltr">update method called</text></g><g stroke-linecap="round"><g transform="translate(252.50000000000273 397.6984825875559) rotate(180.5245011378187 238.19258359995 28.41759503552703)"><path d="M1.1 0.57 C80.55 9.99, 397.07 46.25, 476.16 55.65 M0.22 -0.18 C79.54 9.49, 396.07 47.78, 475.12 57.01" stroke="#087f5b" stroke-width="1" fill="none"></path></g><g transform="translate(252.50000000000273 397.6984825875559) rotate(180.5245011378187 238.19258359995 28.41759503552703)"><path d="M446.86 63.58 C452.96 60.72, 462.77 60.85, 475 56.56 M445.88 63.71 C454.42 61.5, 460.91 59.96, 474.85 57.68" stroke="#087f5b" stroke-width="1" fill="none"></path></g><g transform="translate(252.50000000000273 397.6984825875559) rotate(180.5245011378187 238.19258359995 28.41759503552703)"><path d="M449.29 43.2 C454.61 45.63, 463.8 51.03, 475 56.56 M448.31 43.33 C456.15 46.42, 462.01 50.2, 474.85 57.68" stroke="#087f5b" stroke-width="1" fill="none"></path></g></g></svg>